<?xml version="1.0" standalone="no"?>
<!DOCTYPE svg PUBLIC "-//W3C//DTD SVG 20010904//EN"
 "http://www.w3.org/TR/2001/REC-SVG-20010904/DTD/svg10.dtd">
<svg version="1.0" xmlns="http://www.w3.org/2000/svg"
 width="3459.000000pt" height="3459.000000pt" viewBox="0 0 3459.000000 3459.000000"
 preserveAspectRatio="xMidYMid meet">
<metadata>
Created by potrace 1.11, written by Peter Selinger 2001-2013
</metadata>
<g transform="translate(0.000000,3459.000000) scale(0.100000,-0.100000)"
fill="#000000" stroke="none">
<path d="M7350 29412 c0 -24 195 -569 249 -697 10 -22 26 -60 36 -85 21 -54
27 -67 98 -235 52 -123 118 -269 202 -450 173 -373 455 -900 689 -1288 55 -92
106 -175 111 -185 6 -9 19 -30 29 -47 11 -16 38 -59 61 -95 183 -285 386 -580
561 -811 115 -154 283 -371 293 -379 3 -3 33 -39 66 -80 32 -41 61 -77 65 -80
3 -3 45 -52 94 -110 149 -175 323 -365 511 -558 72 -73 131 -139 133 -147 2
-8 -17 -78 -42 -157 -56 -180 -226 -725 -273 -878 -19 -63 -43 -140 -53 -170
-10 -30 -23 -71 -28 -90 -6 -19 -42 -136 -80 -260 -67 -212 -300 -962 -399
-1280 -24 -80 -55 -179 -68 -220 -13 -41 -42 -133 -64 -205 -121 -391 -141
-455 -159 -510 -10 -33 -27 -87 -36 -120 -10 -33 -22 -71 -27 -85 -8 -25 -144
-459 -172 -555 -18 -60 -240 -771 -302 -970 -24 -77 -76 -243 -116 -370 -39
-126 -84 -273 -100 -325 -17 -52 -31 -99 -33 -105 -1 -5 -13 -44 -26 -85 -13
-41 -24 -79 -26 -85 -1 -5 -9 -30 -17 -55 -8 -25 -33 -103 -55 -175 -23 -71
-75 -240 -117 -375 -42 -135 -94 -301 -115 -370 -21 -69 -111 -359 -200 -645
-300 -964 -352 -1130 -367 -1180 -8 -27 -21 -70 -30 -95 -8 -25 -16 -52 -18
-60 -2 -8 -40 -132 -85 -275 -69 -221 -200 -644 -216 -696 -4 -14 136 -16
1526 -16 1149 0 1530 3 1530 12 0 38 243 638 358 885 60 129 227 465 287 575
77 143 276 488 291 506 8 8 14 19 14 23 0 8 12 28 192 301 363 551 724 996
1167 1435 262 259 479 449 728 635 65 49 134 100 153 115 29 22 245 165 370
245 27 17 188 112 242 142 4 2 27 -61 52 -139 24 -79 64 -204 87 -278 23 -74
44 -139 45 -145 1 -8 114 -373 154 -500 21 -66 115 -371 235 -760 69 -225 133
-430 142 -455 8 -25 16 -52 18 -60 9 -35 565 -1838 632 -2045 19 -60 36 -117
38 -125 2 -8 4 -16 5 -17 2 -2 3 -6 4 -10 1 -5 7 -24 13 -43 6 -19 23 -75 38
-125 51 -171 51 -170 76 -172 58 -4 76 -4 107 -1 17 3 32 1 32 -3 0 -3 18 -3
40 1 22 4 40 4 40 -1 0 -5 7 -6 16 -2 9 3 638 7 1397 7 l1380 1 8 25 c4 14 18
61 32 105 14 44 42 134 62 200 20 66 50 161 65 210 48 153 89 290 89 295 0 3
5 19 11 35 17 43 150 475 156 504 3 14 7 28 10 32 4 7 101 316 108 344 4 15
53 173 93 297 18 58 36 115 38 125 2 10 43 142 91 293 47 151 99 318 114 370
30 98 60 195 104 337 54 173 77 248 81 263 3 8 29 94 59 190 30 96 107 344
171 550 63 206 128 413 142 460 26 81 29 90 32 108 7 37 21 33 137 -38 265
-162 653 -438 824 -586 14 -12 48 -41 75 -64 220 -187 265 -229 515 -480 205
-205 329 -336 406 -430 16 -19 34 -39 40 -45 18 -17 205 -244 288 -350 42 -55
83 -107 89 -115 170 -215 464 -648 667 -985 304 -503 611 -1115 786 -1565 l32
-85 1504 -1 c828 0 1511 -4 1518 -9 9 -5 11 -4 6 4 -4 6 -38 112 -76 234 -175
570 -353 1147 -372 1202 -5 17 -25 80 -43 140 -18 61 -68 220 -110 355 -42
135 -78 252 -80 260 -11 42 -78 258 -85 275 -4 11 -38 119 -75 240 -37 121
-73 238 -80 260 -7 22 -24 78 -38 125 -48 155 -128 413 -174 560 -25 80 -49
159 -53 175 -5 17 -52 170 -105 340 -54 171 -101 324 -105 340 -5 17 -54 176
-110 355 -56 179 -112 359 -125 400 -12 41 -39 129 -60 195 -20 66 -45 147
-55 180 -10 33 -42 134 -70 225 -28 91 -56 179 -60 195 -12 41 -39 130 -99
320 -27 88 -79 255 -114 370 -36 116 -113 363 -171 550 -147 477 -391 1267
-498 1610 -98 319 -160 518 -188 610 -10 33 -75 245 -145 470 -70 226 -131
422 -135 437 -7 24 3 37 123 161 177 180 278 286 362 381 39 43 79 88 90 100
35 37 288 337 371 441 362 450 719 964 1012 1453 140 232 187 313 218 370 16
29 34 61 39 70 6 9 34 62 64 117 30 55 63 116 74 135 29 52 259 511 310 620
63 133 197 430 197 436 0 2 9 23 19 47 90 197 341 864 341 907 0 7 -538 10
-1508 10 l-1508 0 -24 -57 c-124 -303 -167 -402 -278 -633 -25 -52 -46 -97
-47 -100 0 -3 -6 -14 -12 -25 -6 -11 -49 -94 -95 -185 -88 -170 -176 -334
-233 -430 -18 -30 -63 -106 -99 -167 -92 -157 -235 -385 -329 -523 l-30 -45
-1514 0 c-833 0 -1517 -3 -1519 -7 -2 -3 -24 -71 -48 -150 -73 -236 -214 -694
-257 -833 -23 -71 -48 -152 -56 -180 -8 -27 -19 -61 -24 -75 -5 -14 -11 -34
-14 -45 -3 -11 -16 -56 -29 -100 -14 -44 -45 -145 -70 -225 -24 -80 -70 -226
-101 -325 -31 -99 -58 -187 -60 -195 -6 -27 -274 -894 -302 -979 l-28 -84 -60
-18 c-69 -22 -445 -115 -490 -122 -16 -3 -68 -12 -115 -21 -47 -8 -98 -18
-115 -20 -16 -3 -43 -7 -60 -10 -144 -24 -424 -53 -615 -63 -228 -11 -804 -4
-830 12 -3 1 -43 6 -90 9 -47 4 -98 9 -115 10 -60 7 -131 16 -155 20 -14 3
-43 7 -65 11 -50 7 -91 13 -130 20 -16 3 -55 10 -85 15 -63 11 -207 43 -330
74 l-85 21 -18 55 c-11 30 -45 141 -77 245 -32 105 -82 264 -110 355 -28 91
-55 179 -60 195 -8 33 -288 937 -347 1125 -20 63 -38 120 -39 125 -1 6 -41
135 -88 288 -47 152 -124 400 -170 550 -47 149 -89 283 -94 297 l-10 25 -1507
0 c-829 0 -1510 2 -1515 5 -38 24 -418 725 -563 1040 -46 100 -144 324 -177
405 -18 44 -40 98 -50 120 -28 63 -166 442 -190 523 l-22 72 -1584 0 c-871 0
-1584 -4 -1584 -8z m5765 -7317 c20 -66 49 -160 65 -210 15 -49 42 -137 60
-195 17 -58 35 -116 40 -130 17 -47 208 -675 212 -694 2 -15 -17 -28 -102 -66
-155 -68 -171 -76 -340 -158 -188 -91 -385 -196 -568 -302 -40 -23 -75 -40
-78 -37 -3 2 0 15 5 28 9 22 121 382 125 404 2 6 10 33 18 60 31 98 109 350
113 365 5 18 168 544 326 1053 l44 138 22 -68 c12 -37 38 -122 58 -188z m8299
208 c8 -27 33 -106 55 -178 22 -71 68 -218 102 -325 33 -107 65 -211 69 -230
5 -19 15 -55 23 -80 36 -108 387 -1245 387 -1254 0 -4 -18 5 -40 19 -22 14
-41 25 -44 25 -2 0 -34 18 -71 40 -36 23 -76 45 -88 51 -12 5 -53 28 -92 50
-67 38 -513 261 -585 292 -165 72 -212 97 -207 114 3 10 37 122 77 248 40 127
80 257 90 290 10 33 38 125 63 205 43 138 176 569 220 713 11 37 21 67 23 67
1 0 9 -21 18 -47z m-4305 -2957 c8 -5 16 -5 20 1 9 14 54 14 63 0 4 -7 8 -7 8
-2 0 14 47 18 55 5 4 -6 13 -7 23 -2 15 8 29 8 50 2 4 -1 31 -1 60 0 28 1 52
-2 52 -7 0 -4 -34 -118 -76 -253 -82 -264 -106 -344 -132 -430 l-16 -55 -17
55 c-167 537 -209 677 -209 686 0 12 99 13 119 0z"/>
<path d="M15815 13731 c-3 -5 -2 -12 3 -15 5 -3 9 1 9 9 0 17 -3 19 -12 6z"/>
<path d="M16647 10034 c-1 -1 -60 -5 -132 -8 -71 -4 -143 -8 -160 -10 -16 -2
-57 -7 -90 -11 -94 -10 -239 -33 -320 -52 -11 -2 -31 -6 -45 -9 -96 -19 -294
-81 -435 -136 -104 -41 -321 -147 -367 -179 -14 -11 -28 -19 -31 -19 -9 0
-129 -81 -209 -142 -379 -287 -677 -671 -821 -1058 -32 -85 -83 -253 -93 -305
-2 -11 -6 -31 -9 -45 -32 -162 -43 -302 -39 -515 1 -115 6 -228 9 -250 21
-148 29 -191 52 -284 96 -402 281 -731 590 -1051 53 -55 128 -126 167 -157 39
-32 80 -66 91 -76 45 -42 267 -182 375 -236 224 -114 399 -176 670 -237 113
-25 184 -37 286 -49 33 -4 70 -9 84 -11 146 -24 633 -23 841 1 401 46 824 158
1137 301 29 13 55 24 58 24 2 0 60 28 128 62 l124 61 0 518 0 518 -52 -24
c-28 -12 -109 -51 -181 -85 -219 -105 -463 -208 -630 -266 -93 -33 -291 -88
-353 -98 -64 -11 -169 -28 -197 -32 -16 -2 -116 -7 -220 -10 -244 -8 -385 5
-635 61 -64 14 -224 75 -315 119 -198 97 -370 229 -502 386 -73 87 -73 87
-114 155 -95 155 -148 297 -179 476 -25 149 -22 411 8 534 70 290 162 457 361
655 234 232 517 381 856 449 92 18 136 24 250 36 52 5 381 6 420 1 17 -2 59
-7 95 -10 36 -4 76 -9 90 -11 49 -10 76 -15 135 -26 117 -21 360 -91 500 -144
124 -46 340 -145 467 -211 68 -36 127 -66 133 -67 13 -3 13 1032 0 1049 -17
22 -232 130 -365 182 -181 72 -442 148 -571 166 -19 3 -74 12 -124 20 -49 8
-119 18 -155 21 -36 4 -76 8 -90 11 -46 7 -487 23 -493 18z"/>
<path d="M21887 10033 c-1 0 -63 -4 -138 -7 -75 -4 -145 -8 -155 -10 -11 -2
-46 -7 -79 -10 -417 -49 -791 -178 -1127 -390 -282 -177 -574 -466 -770 -762
-66 -98 -181 -304 -171 -304 3 0 1 -6 -5 -13 -17 -20 -89 -214 -116 -312 -29
-105 -55 -231 -61 -292 -3 -24 -8 -58 -11 -76 -15 -76 -10 -423 7 -560 73
-573 353 -1074 834 -1493 289 -252 663 -442 1060 -539 61 -15 119 -29 130 -30
11 -2 47 -8 80 -14 33 -6 83 -13 110 -16 28 -4 61 -8 75 -11 53 -9 262 -18
410 -18 214 0 360 10 545 40 102 16 105 16 200 39 39 9 80 19 93 21 13 3 82
24 155 48 266 88 511 216 725 377 245 185 496 457 651 704 119 191 220 432
277 660 4 17 8 32 9 35 1 5 24 136 30 178 13 79 19 176 19 307 0 137 -10 321
-19 349 -2 6 -6 27 -9 46 -3 19 -8 46 -11 60 -5 26 -28 131 -30 140 -94 355
-282 695 -545 983 -143 157 -414 397 -449 397 -5 0 -11 4 -13 9 -6 15 -172
114 -298 177 -204 102 -465 188 -690 228 -121 22 -131 24 -196 31 -33 4 -70 8
-83 10 -48 8 -429 24 -434 18z m243 -998 c468 -39 842 -245 1083 -597 72 -107
159 -298 182 -406 3 -12 7 -30 9 -39 8 -38 26 -141 34 -201 12 -82 7 -360 -7
-437 -6 -33 -13 -73 -15 -90 -42 -244 -173 -498 -354 -683 -219 -223 -510
-364 -842 -407 -95 -12 -139 -15 -250 -15 -193 0 -296 12 -459 51 -68 17 -131
34 -140 39 -9 4 -52 23 -96 41 -151 63 -292 158 -413 279 -113 113 -151 163
-231 305 -21 39 -42 81 -46 95 -4 14 -11 30 -15 35 -16 21 -75 225 -85 295
-26 175 -26 449 -1 590 52 298 167 530 360 724 50 50 103 101 117 113 44 35
171 117 225 146 104 55 321 128 421 141 16 2 50 7 77 11 125 18 303 22 446 10z"/>
<path d="M2 7603 l3 -2368 585 0 585 0 5 1473 5 1474 148 -174 c82 -95 161
-186 176 -203 15 -16 67 -77 116 -135 49 -58 92 -107 95 -110 3 -3 30 -34 60
-70 30 -36 57 -67 60 -70 3 -3 21 -23 40 -46 19 -22 58 -67 87 -100 28 -32 84
-97 123 -144 40 -47 87 -101 104 -120 17 -19 84 -96 147 -170 l117 -135 90 0
c87 0 90 1 115 31 31 37 488 567 526 609 14 17 64 75 111 130 97 113 131 153
145 169 6 6 51 58 100 116 50 58 100 116 113 130 12 14 73 84 135 157 61 72
114 130 115 128 2 -2 4 -663 4 -1469 0 -1101 3 -1465 11 -1468 10 -4 1145 -3
1165 1 4 0 7 1064 7 2364 l0 2362 -515 2 -515 3 -230 -266 c-126 -146 -240
-278 -253 -292 -13 -15 -44 -52 -70 -82 -26 -30 -65 -75 -88 -100 -22 -25
-168 -193 -325 -374 -595 -689 -549 -640 -569 -619 -9 10 -91 104 -181 208
-90 105 -168 195 -174 201 -14 16 -46 53 -160 184 -55 64 -156 181 -225 260
-69 79 -187 216 -264 304 -76 89 -151 175 -167 193 -16 18 -57 65 -91 105 -34
40 -68 79 -75 86 -6 6 -46 53 -89 102 l-77 90 -513 0 -514 0 2 -2367z"/>
<path d="M6182 7603 l3 -2368 588 0 c516 0 587 2 588 15 0 8 1 1074 2 2367 l2
2353 -593 0 -592 0 2 -2367z"/>
<path d="M8207 9793 c81 -98 161 -194 177 -214 39 -45 56 -65 141 -169 38 -47
72 -87 75 -90 3 -3 106 -126 230 -275 123 -148 256 -308 295 -354 38 -47 162
-195 274 -330 112 -135 223 -268 246 -296 36 -42 89 -106 183 -220 73 -88 118
-141 125 -146 7 -5 -281 -364 -628 -784 -19 -22 -90 -110 -160 -195 -70 -85
-141 -173 -160 -195 -52 -64 -187 -228 -225 -275 -19 -24 -71 -87 -115 -140
-44 -53 -96 -116 -115 -140 -19 -24 -100 -123 -180 -220 -80 -97 -161 -196
-180 -220 -19 -24 -81 -99 -137 -168 -57 -68 -103 -125 -103 -126 0 0 340 -1
755 -1 490 0 757 4 763 10 6 6 94 116 198 245 104 129 218 271 254 316 79 97
81 100 353 438 265 328 275 340 295 365 10 11 46 56 81 100 36 45 67 81 70 81
3 0 28 -28 56 -63 27 -34 60 -73 72 -87 20 -23 277 -336 362 -440 20 -25 119
-147 221 -270 101 -124 267 -326 369 -450 101 -124 189 -230 196 -235 13 -11
1523 -15 1528 -3 1 3 -9 19 -23 35 -14 15 -45 53 -70 83 -25 30 -47 57 -50 60
-3 3 -75 88 -160 190 -261 314 -454 545 -460 550 -3 3 -25 30 -50 60 -25 30
-47 57 -50 60 -3 3 -25 30 -49 60 -25 30 -50 60 -55 65 -6 6 -43 48 -81 95
-38 47 -72 87 -75 90 -3 3 -50 59 -104 125 -55 66 -110 131 -122 145 -13 14
-98 115 -189 225 -167 201 -188 226 -306 366 -82 97 -136 163 -171 206 l-27
34 136 167 c75 92 179 220 232 286 218 269 464 572 480 591 14 18 306 377 669
825 74 91 141 174 150 185 10 11 55 66 100 123 l83 102 -753 -1 -753 0 -265
-334 c-146 -184 -278 -351 -293 -372 -16 -21 -45 -58 -65 -82 -20 -24 -44 -54
-52 -65 -8 -12 -22 -30 -32 -41 -9 -11 -101 -126 -204 -255 -102 -129 -190
-235 -194 -235 -4 0 -97 110 -205 245 -109 135 -200 247 -204 250 -3 3 -19 23
-36 45 -31 42 -162 205 -192 240 -10 11 -63 76 -117 145 -55 69 -102 127 -105
130 -4 3 -51 61 -105 130 -55 69 -102 127 -106 130 -3 3 -16 20 -29 38 l-22
32 -770 0 -769 0 147 -177z"/>
<path d="M25510 7603 l0 -2368 1098 1 c964 1 1221 4 1322 19 14 2 52 6 85 10
78 8 118 14 185 25 30 5 73 12 94 16 126 19 410 101 566 164 57 22 260 121
295 142 265 167 434 311 592 504 119 144 262 400 327 582 28 80 82 275 91 332
3 19 10 58 15 85 25 134 34 264 34 480 0 204 -8 308 -34 457 -11 62 -22 124
-25 138 -2 14 -17 72 -34 129 -172 594 -586 1085 -1150 1366 -184 91 -490 194
-651 219 -19 3 -46 8 -60 11 -61 12 -77 15 -117 20 -24 3 -60 7 -80 10 -21 3
-63 8 -93 12 -30 4 -596 8 -1257 10 l-1203 4 0 -2368z m2191 1487 c24 -4 64
-10 89 -13 218 -26 463 -117 641 -238 90 -62 225 -191 281 -269 18 -25 35 -47
38 -50 7 -6 54 -87 90 -154 44 -85 112 -285 126 -376 2 -14 6 -38 9 -55 18
-116 26 -216 26 -350 0 -101 -2 -133 -17 -251 -12 -96 -52 -275 -65 -288 -5
-6 -9 -16 -9 -24 0 -46 -130 -296 -199 -382 -162 -202 -320 -322 -537 -411
-87 -35 -265 -86 -336 -94 -18 -3 -44 -7 -58 -10 -68 -13 -223 -18 -633 -19
-390 -1 -448 1 -451 14 -3 8 -4 682 -4 1498 l0 1483 483 -2 c265 0 502 -5 526
-9z"/>
<path d="M31099 9948 c-1 -30 -1 -4690 0 -4703 1 -7 588 -10 1744 -10 l1742 0
3 435 2 435 -1155 0 c-918 0 -1155 3 -1156 12 0 7 -1 258 -1 558 0 300 1 550
1 555 1 7 368 10 1079 10 l1079 0 0 435 0 435 -1079 0 c-593 0 -1078 3 -1079
8 0 4 -1 226 -2 495 l-2 487 1133 0 c747 0 1132 3 1133 10 0 6 1 192 1 415 0
223 -1 414 -1 425 -1 20 -8 20 -1721 20 l-1720 0 -1 -22z"/>
</g>
</svg>
